<svg width="1080" height="1080" viewBox="0 0 1080 1080" fill="none" xmlns="http://www.w3.org/2000/svg">
<rect width="1080" height="1080" rx="500" fill="white"/>
<path d="M769.383 521.415C785.262 554.571 794.158 591.77 794.158 630.953C794.158 771.589 680.209 885.538 539.573 885.538C398.938 885.538 284.989 771.589 284.989 630.953C284.989 591.696 293.884 554.571 309.763 521.415C276.397 568.685 258.519 625.143 258.597 683.002C258.597 838.194 384.382 963.979 539.573 963.979C694.765 963.979 820.55 838.194 820.55 683.002C820.546 625.155 802.676 568.721 769.383 521.415Z" fill="#4B8A99"/>
<path d="M307.485 420.405C179.273 548.542 179.273 756.298 307.485 884.509C435.622 1012.65 643.377 1012.65 771.589 884.509C899.8 756.371 899.726 548.616 771.589 420.405C643.377 292.267 435.622 292.267 307.485 420.405ZM715.864 856.646C615.883 956.628 453.854 956.628 353.873 856.646C253.892 756.665 253.892 594.637 353.873 494.656C453.854 394.674 615.883 394.674 715.864 494.656C815.845 594.637 815.845 756.665 715.864 856.646Z" fill="#BDBDBD"/>
<path d="M347.918 221.839L404.892 135.458L449.002 185.89L347.918 221.839Z" fill="#64B5F6"/>
<path d="M478.555 288.077L347.918 221.839L449.002 185.89L478.555 288.077Z" fill="#81D4FA"/>
<path d="M543.175 205.96L449.002 185.89L478.555 288.077L543.175 205.96Z" fill="white"/>
<path d="M738.506 221.839L681.532 135.458L637.422 185.89L738.506 221.839Z" fill="#1E88E5"/>
<path d="M607.796 288.077L738.507 221.839L637.423 185.89L607.796 288.077Z" fill="#B3E5FC"/>
<path d="M543.176 205.96L637.423 185.89L607.796 288.077L543.176 205.96Z" fill="white"/>
<path d="M607.796 288.077L543.175 205.96L478.555 288.077H607.796Z" fill="#B2EBF2"/>
<path d="M474.953 98.4062H611.471L681.532 135.458L637.422 185.89L543.175 205.96L449.002 185.89L404.892 135.458L474.953 98.4062Z" fill="#B3E5FC"/>
<path d="M543.175 415.185L347.918 221.839L478.555 288.077L543.175 415.185Z" fill="#1E88E5"/>
<path d="M543.176 415.185L738.507 221.839L607.796 288.077L543.176 415.185Z" fill="#81D4FA"/>
<path d="M607.796 288.077L543.175 415.185L478.555 288.077H607.796Z" fill="#E1F5FE"/>
<path d="M319.321 445.694C340.714 452.678 327.995 472.674 323.511 477.085C305.941 494.435 301.236 505.683 290.282 523.841C278.887 542.661 265.581 543.617 260.141 532.369C245.29 501.566 294.325 437.46 319.321 445.694ZM709.689 887.817C671.754 910.901 658.154 901.638 667.858 895.169C704.395 870.761 753.43 836.797 783.866 742.55C785.998 735.86 793.202 731.082 799.819 733.434C805.847 735.566 809.376 741.962 807.685 748.064C782.469 840.62 740.198 869.218 709.689 887.817Z" fill="white"/>
<path d="M673.004 287.341L574.493 383.941L560.011 382.544L562.951 318.586C562.951 306.088 555.159 296.825 543.249 296.825C531.266 296.825 524.135 306.088 524.135 318.586L527.076 382.544L512.593 383.941L414.009 287.341C414.009 287.341 388.352 298.442 412.979 322.849C440.842 350.418 509.285 415.773 509.285 415.773H577.655C577.655 415.773 646.171 350.418 673.96 322.849C698.661 298.442 673.004 287.341 673.004 287.341Z" fill="#BDBDBD"/>
<path d="M672.783 286.974L592.504 366.297C585.667 372.987 588.829 384.676 598.165 386.882C619.117 391.734 653.522 404.305 699.984 436.872C731.302 458.853 749.093 454.957 755.856 442.459C764.384 426.727 757.547 406.51 742.329 394.454C693.882 356.078 652.126 344.169 652.126 344.169C659.992 336.597 667.637 329.245 674.033 322.849C698.661 298.442 672.783 286.974 672.783 286.974Z" fill="#8E8E8E"/>
</svg>
